# xmcd
#
# Track frame offsets:
#	150
#	16856
#	33431
#	49491
#	72206
#	100951
#
# Disc length: 1616 seconds
#
# Revision: 0
# Processed by: cddbd v1.5.2PL0 Copyright (c) Steve Scherf et al.
# Submitted via: dBpowerAMP V4.0
#
DISCID=4a064e06
DTITLE=Fabrizio Faniello - I'm In Love (The Whistle Hit) [CDS]
DYEAR=2004
DGENRE=Pop
TTITLE0=I'm In Love (The Whistle Hit) (Radio Edit)
TTITLE1=I'm In Love (The Whistle Hit) (Continental Short Cut)
TTITLE2=I'm In Love (The Whistle Hit) (Greek Mix)
TTITLE3=I'm In Love (The Whistle Hit) (Extended Radio Edit)
TTITLE4=I'm In Love (The Whistle Hit) (Continental Club Mix)
TTITLE5=I'm In Love (The Whistle Hit) (Upbeat Dance Mix)
EXTD=
EXTT0=
EXTT1=
EXTT2=
EXTT3=
EXTT4=
EXTT5=
PLAYORDER=
